<svg width="398" height="345" viewBox="0 0 398 345" fill="none" xmlns="http://www.w3.org/2000/svg">
<path fill-rule="evenodd" clip-rule="evenodd" d="M170.341 4.99302L0.116531 299.831L23.2079 339.827L167.813 89.3629L167.817 89.3651L170.933 83.9679L190.176 117.298L204.205 93L289.076 240H306.023L170.341 4.99302ZM317.205 251H312.374H295.426L309.86 276H128.187L120.104 290H392.617L225.186 0H178.991L323.906 251H317.205ZM109.205 301H113.754H397.57L372.166 345H31.7775L170.878 104.071L184.345 127.398L98.55 276H116.492L102.095 300.936L102.206 301H109.205Z" fill="black"/>
<path fill-rule="evenodd" clip-rule="evenodd" d="M317.205 251H318.12L340.637 290H120.104L143.205 249.989V251H312.374H317.205ZM170.332 4.97649L306.023 240H261.018L170.933 83.9679L167.817 89.3651L167.813 89.3629L46.2017 300H0L170.332 4.97649ZM102.636 300L133.812 246H88.9352L57.7583 300H102.636Z" fill="black"/>
<path fill-rule="evenodd" clip-rule="evenodd" d="M196.332 50.0098L173.83 88.985L202.12 137.985L224.622 99.0098L196.332 50.0098ZM317.205 251H323.906L202.098 40.0227L225.205 0L392.637 290H120.104L142.621 251H143.205H312.374H313.54H317.205ZM57.7583 300H102.636L193.316 142.936L170.878 104.071L57.7583 300Z" fill="black"/>
<path fill-rule="evenodd" clip-rule="evenodd" d="M317.205 251H318.139L340.656 290H284.076L261.559 251H312.374H317.205ZM196.322 49.9931L306.023 240H261.018L173.82 88.9683L196.322 49.9931ZM170.878 104.071L193.316 142.936L102.095 300.936L102.206 301H109.205H113.754H347.007L372.41 345H31.7775L170.878 104.071Z" fill="black"/>
</svg>
